# xmcd
#
# Track frame offsets: 
#        183
#        10088
#        23620
#        33725
#        41460
#        50098
#        62508
#        80163
#        91198
#        104065
#        116910
#        129455
#        137850
#        148735
#        165413
#        178690
#        189423
#        201323
#
# Disc length: 2853 seconds
#
# Revision: 2
# Processed by: cddbd v1.5.2PL0 Copyright (c) Steve Scherf et al.
# Submitted via: ExactAudioCopyFreeDBPlugin 1.0
#
DISCID=020b2312
DTITLE=Various Artist - Great American Train Songs [Roundhouse Record
DTITLE=s]
DYEAR=1989
DGENRE=Trains
TTITLE0=Johnny Cash - Rock Island Line
TTITLE1=Patty Paige - Throw Mama from the Train
TTITLE2=Johnny Cash - Hey Porter
TTITLE3=Jerry Lee Lewis - Waiting for a Train
TTITLE4=Johnny Cash - The Wreck of the Old 97
TTITLE5=Roy Acuff - Wabash Cannonball
TTITLE6=Steve Goodman - City of New Orleans
TTITLE7=Johnny Cash - Train of Love
TTITLE8=Smiley Burnette - Lazy Locomotive
TTITLE9=Hylo Brown - John Henry
TTITLE10=Johnny McCollum - Santa Fe All the Way
TTITLE11=Sleepy LaBeef - Mystery Train
TTITLE12=Jim Glaser - Midnight Special
TTITLE13=Johnny McCollum - Chattanooga Choo Choo
TTITLE14=Roy Acuff - Boxcar Willie
TTITLE15=Bob Newman - Chick-A-Choo
TTITLE16=Reno and Smiley - East Bound Freight Train
TTITLE17=Al Dexter - Blow That Lonesome Whistle, Casey
EXTD=
EXTT0=
EXTT1=
EXTT2=
EXTT3=
EXTT4=
EXTT5=
EXTT6=
EXTT7=
EXTT8=
EXTT9=
EXTT10=
EXTT11=
EXTT12=
EXTT13=
EXTT14=
EXTT15=
EXTT16=
EXTT17=
PLAYORDER=
